<mxfile host="Electron" modified="2023-07-13T16:48:40.687Z" agent="Mozilla/5.0 (X11; Linux x86_64) AppleWebKit/537.36 (KHTML, like Gecko) draw.io/21.3.7 Chrome/112.0.5615.204 Electron/24.5.0 Safari/537.36" etag="uT3YjfcBmbYijj-kqFv7" version="21.3.7" type="device">
  <diagram name="Page-1" id="iniuJWafJdbEQssZB0Gv">
    <mxGraphModel dx="207" dy="116" grid="1" gridSize="10" guides="1" tooltips="1" connect="1" arrows="1" fold="1" page="1" pageScale="1" pageWidth="827" pageHeight="1169" math="0" shadow="0">
      <root>
        <mxCell id="0" />
        <mxCell id="1" parent="0" />
        <mxCell id="IXgej2Zk1H3CgpmO1hfQ-29" value="" style="group" vertex="1" connectable="0" parent="1">
          <mxGeometry x="190" y="230" width="40" height="40" as="geometry" />
        </mxCell>
        <mxCell id="IXgej2Zk1H3CgpmO1hfQ-1" value="" style="rounded=0;whiteSpace=wrap;html=1;strokeWidth=0.5;" vertex="1" parent="IXgej2Zk1H3CgpmO1hfQ-29">
          <mxGeometry x="10" y="10" width="10" height="10" as="geometry" />
        </mxCell>
        <mxCell id="IXgej2Zk1H3CgpmO1hfQ-2" value="" style="rounded=0;whiteSpace=wrap;html=1;strokeWidth=0.5;" vertex="1" parent="IXgej2Zk1H3CgpmO1hfQ-29">
          <mxGeometry x="20" y="10" width="10" height="10" as="geometry" />
        </mxCell>
        <mxCell id="IXgej2Zk1H3CgpmO1hfQ-3" value="" style="rounded=0;whiteSpace=wrap;html=1;strokeWidth=0.5;" vertex="1" parent="IXgej2Zk1H3CgpmO1hfQ-29">
          <mxGeometry x="10" y="20" width="10" height="10" as="geometry" />
        </mxCell>
        <mxCell id="IXgej2Zk1H3CgpmO1hfQ-4" value="" style="rounded=0;whiteSpace=wrap;html=1;strokeWidth=0.5;" vertex="1" parent="IXgej2Zk1H3CgpmO1hfQ-29">
          <mxGeometry x="20" y="20" width="10" height="10" as="geometry" />
        </mxCell>
        <mxCell id="IXgej2Zk1H3CgpmO1hfQ-5" value="1" style="text;html=1;strokeColor=none;fillColor=none;align=center;verticalAlign=middle;whiteSpace=wrap;rounded=0;fontSize=4;fontFamily=Roboto;fontColor=#B85450;" vertex="1" parent="IXgej2Zk1H3CgpmO1hfQ-29">
          <mxGeometry x="5" width="10" height="10" as="geometry" />
        </mxCell>
        <mxCell id="IXgej2Zk1H3CgpmO1hfQ-6" value="2" style="text;html=1;strokeColor=none;fillColor=none;align=center;verticalAlign=middle;whiteSpace=wrap;rounded=0;fontSize=4;fontFamily=Roboto;" vertex="1" parent="IXgej2Zk1H3CgpmO1hfQ-29">
          <mxGeometry x="15" width="10" height="10" as="geometry" />
        </mxCell>
        <mxCell id="IXgej2Zk1H3CgpmO1hfQ-7" value="3" style="text;html=1;strokeColor=none;fillColor=none;align=center;verticalAlign=middle;whiteSpace=wrap;rounded=0;fontSize=4;fontFamily=Roboto;" vertex="1" parent="IXgej2Zk1H3CgpmO1hfQ-29">
          <mxGeometry x="25" width="10" height="10" as="geometry" />
        </mxCell>
        <mxCell id="IXgej2Zk1H3CgpmO1hfQ-8" value="1" style="text;html=1;strokeColor=none;fillColor=none;align=center;verticalAlign=middle;whiteSpace=wrap;rounded=0;fontSize=4;fontFamily=Roboto;fontColor=#B85450;" vertex="1" parent="IXgej2Zk1H3CgpmO1hfQ-29">
          <mxGeometry y="5" width="10" height="10" as="geometry" />
        </mxCell>
        <mxCell id="IXgej2Zk1H3CgpmO1hfQ-9" value="2" style="text;html=1;strokeColor=none;fillColor=none;align=center;verticalAlign=middle;whiteSpace=wrap;rounded=0;fontSize=4;fontFamily=Roboto;" vertex="1" parent="IXgej2Zk1H3CgpmO1hfQ-29">
          <mxGeometry y="15" width="10" height="10" as="geometry" />
        </mxCell>
        <mxCell id="IXgej2Zk1H3CgpmO1hfQ-10" value="3" style="text;html=1;strokeColor=none;fillColor=none;align=center;verticalAlign=middle;whiteSpace=wrap;rounded=0;fontSize=4;fontFamily=Roboto;fontColor=#B85450;" vertex="1" parent="IXgej2Zk1H3CgpmO1hfQ-29">
          <mxGeometry y="25" width="10" height="10" as="geometry" />
        </mxCell>
        <mxCell id="IXgej2Zk1H3CgpmO1hfQ-11" value="-3" style="text;html=1;strokeColor=none;fillColor=none;align=center;verticalAlign=middle;whiteSpace=wrap;rounded=0;fontSize=4;fontFamily=Roboto;" vertex="1" parent="IXgej2Zk1H3CgpmO1hfQ-29">
          <mxGeometry x="30" y="5" width="10" height="10" as="geometry" />
        </mxCell>
        <mxCell id="IXgej2Zk1H3CgpmO1hfQ-12" value="-2" style="text;html=1;strokeColor=none;fillColor=none;align=center;verticalAlign=middle;whiteSpace=wrap;rounded=0;fontSize=4;fontFamily=Roboto;" vertex="1" parent="IXgej2Zk1H3CgpmO1hfQ-29">
          <mxGeometry x="30" y="15" width="10" height="10" as="geometry" />
        </mxCell>
        <mxCell id="IXgej2Zk1H3CgpmO1hfQ-13" value="-1" style="text;html=1;strokeColor=none;fillColor=none;align=center;verticalAlign=middle;whiteSpace=wrap;rounded=0;fontSize=4;fontFamily=Roboto;" vertex="1" parent="IXgej2Zk1H3CgpmO1hfQ-29">
          <mxGeometry x="30" y="25" width="10" height="10" as="geometry" />
        </mxCell>
        <mxCell id="IXgej2Zk1H3CgpmO1hfQ-14" value="-3" style="text;html=1;strokeColor=none;fillColor=none;align=center;verticalAlign=middle;whiteSpace=wrap;rounded=0;fontSize=4;fontFamily=Roboto;" vertex="1" parent="IXgej2Zk1H3CgpmO1hfQ-29">
          <mxGeometry x="5" y="30" width="10" height="10" as="geometry" />
        </mxCell>
        <mxCell id="IXgej2Zk1H3CgpmO1hfQ-15" value="-2" style="text;html=1;strokeColor=none;fillColor=none;align=center;verticalAlign=middle;whiteSpace=wrap;rounded=0;fontSize=4;fontFamily=Roboto;fontColor=#B85450;" vertex="1" parent="IXgej2Zk1H3CgpmO1hfQ-29">
          <mxGeometry x="15" y="30" width="10" height="10" as="geometry" />
        </mxCell>
        <mxCell id="IXgej2Zk1H3CgpmO1hfQ-16" value="-1" style="text;html=1;strokeColor=none;fillColor=none;align=center;verticalAlign=middle;whiteSpace=wrap;rounded=0;fontSize=4;fontFamily=Roboto;" vertex="1" parent="IXgej2Zk1H3CgpmO1hfQ-29">
          <mxGeometry x="25" y="30" width="10" height="10" as="geometry" />
        </mxCell>
        <mxCell id="IXgej2Zk1H3CgpmO1hfQ-17" value="" style="triangle;whiteSpace=wrap;html=1;rotation=0;fillColor=#B85450;strokeColor=none;fontColor=#B85450;" vertex="1" parent="IXgej2Zk1H3CgpmO1hfQ-29">
          <mxGeometry x="8" y="29.5" width="1" height="1" as="geometry" />
        </mxCell>
        <mxCell id="IXgej2Zk1H3CgpmO1hfQ-18" value="" style="triangle;whiteSpace=wrap;html=1;rotation=0;fillColor=#000000;strokeColor=none;" vertex="1" parent="IXgej2Zk1H3CgpmO1hfQ-29">
          <mxGeometry x="8" y="19.5" width="1" height="1" as="geometry" />
        </mxCell>
        <mxCell id="IXgej2Zk1H3CgpmO1hfQ-19" value="" style="triangle;whiteSpace=wrap;html=1;rotation=0;fillColor=#B85450;strokeColor=none;" vertex="1" parent="IXgej2Zk1H3CgpmO1hfQ-29">
          <mxGeometry x="8" y="9.5" width="1" height="1" as="geometry" />
        </mxCell>
        <mxCell id="IXgej2Zk1H3CgpmO1hfQ-20" value="" style="triangle;whiteSpace=wrap;html=1;rotation=90;fillColor=#B85450;strokeColor=none;" vertex="1" parent="IXgej2Zk1H3CgpmO1hfQ-29">
          <mxGeometry x="9.5" y="7.5" width="1" height="1" as="geometry" />
        </mxCell>
        <mxCell id="IXgej2Zk1H3CgpmO1hfQ-21" value="" style="triangle;whiteSpace=wrap;html=1;rotation=90;fillColor=#000000;strokeColor=none;" vertex="1" parent="IXgej2Zk1H3CgpmO1hfQ-29">
          <mxGeometry x="19.5" y="7.5" width="1" height="1" as="geometry" />
        </mxCell>
        <mxCell id="IXgej2Zk1H3CgpmO1hfQ-22" value="" style="triangle;whiteSpace=wrap;html=1;rotation=90;fillColor=#000000;strokeColor=none;" vertex="1" parent="IXgej2Zk1H3CgpmO1hfQ-29">
          <mxGeometry x="29.5" y="7.5" width="1" height="1" as="geometry" />
        </mxCell>
        <mxCell id="IXgej2Zk1H3CgpmO1hfQ-23" value="" style="triangle;whiteSpace=wrap;html=1;rotation=180;fillColor=#000000;strokeColor=none;" vertex="1" parent="IXgej2Zk1H3CgpmO1hfQ-29">
          <mxGeometry x="31" y="9.5" width="1" height="1" as="geometry" />
        </mxCell>
        <mxCell id="IXgej2Zk1H3CgpmO1hfQ-24" value="" style="triangle;whiteSpace=wrap;html=1;rotation=180;fillColor=#000000;strokeColor=none;" vertex="1" parent="IXgej2Zk1H3CgpmO1hfQ-29">
          <mxGeometry x="31" y="19.5" width="1" height="1" as="geometry" />
        </mxCell>
        <mxCell id="IXgej2Zk1H3CgpmO1hfQ-25" value="" style="triangle;whiteSpace=wrap;html=1;rotation=180;fillColor=#000000;strokeColor=none;" vertex="1" parent="IXgej2Zk1H3CgpmO1hfQ-29">
          <mxGeometry x="31" y="29.5" width="1" height="1" as="geometry" />
        </mxCell>
        <mxCell id="IXgej2Zk1H3CgpmO1hfQ-26" value="" style="triangle;whiteSpace=wrap;html=1;rotation=-90;fillColor=#000000;strokeColor=none;" vertex="1" parent="IXgej2Zk1H3CgpmO1hfQ-29">
          <mxGeometry x="29.5" y="31" width="1" height="1" as="geometry" />
        </mxCell>
        <mxCell id="IXgej2Zk1H3CgpmO1hfQ-27" value="" style="triangle;whiteSpace=wrap;html=1;rotation=-90;fillColor=#B85450;strokeColor=none;fontColor=#B85450;" vertex="1" parent="IXgej2Zk1H3CgpmO1hfQ-29">
          <mxGeometry x="19.5" y="31" width="1" height="1" as="geometry" />
        </mxCell>
        <mxCell id="IXgej2Zk1H3CgpmO1hfQ-28" value="" style="triangle;whiteSpace=wrap;html=1;rotation=-90;fillColor=#000000;strokeColor=none;" vertex="1" parent="IXgej2Zk1H3CgpmO1hfQ-29">
          <mxGeometry x="9.5" y="31" width="1" height="1" as="geometry" />
        </mxCell>
        <mxCell id="IXgej2Zk1H3CgpmO1hfQ-60" value="" style="rounded=0;whiteSpace=wrap;html=1;strokeWidth=0.5;fillColor=#f8cecc;strokeColor=#b85450;" vertex="1" parent="IXgej2Zk1H3CgpmO1hfQ-29">
          <mxGeometry x="10" y="10" width="10" height="20" as="geometry" />
        </mxCell>
        <mxCell id="IXgej2Zk1H3CgpmO1hfQ-30" value="" style="group" vertex="1" connectable="0" parent="1">
          <mxGeometry x="110" y="230" width="40" height="40" as="geometry" />
        </mxCell>
        <mxCell id="r3LCG5irQomIW10Yj3tH-2" value="" style="rounded=0;whiteSpace=wrap;html=1;strokeWidth=0.5;" parent="IXgej2Zk1H3CgpmO1hfQ-30" vertex="1">
          <mxGeometry x="20" y="10" width="10" height="10" as="geometry" />
        </mxCell>
        <mxCell id="r3LCG5irQomIW10Yj3tH-6" value="" style="rounded=0;whiteSpace=wrap;html=1;strokeWidth=0.5;" parent="IXgej2Zk1H3CgpmO1hfQ-30" vertex="1">
          <mxGeometry x="10" y="20" width="10" height="10" as="geometry" />
        </mxCell>
        <mxCell id="r3LCG5irQomIW10Yj3tH-7" value="" style="rounded=0;whiteSpace=wrap;html=1;strokeWidth=0.5;" parent="IXgej2Zk1H3CgpmO1hfQ-30" vertex="1">
          <mxGeometry x="20" y="20" width="10" height="10" as="geometry" />
        </mxCell>
        <mxCell id="r3LCG5irQomIW10Yj3tH-26" value="1" style="text;html=1;strokeColor=none;fillColor=none;align=center;verticalAlign=middle;whiteSpace=wrap;rounded=0;fontSize=4;fontFamily=Roboto;" parent="IXgej2Zk1H3CgpmO1hfQ-30" vertex="1">
          <mxGeometry x="5" width="10" height="10" as="geometry" />
        </mxCell>
        <mxCell id="r3LCG5irQomIW10Yj3tH-27" value="2" style="text;html=1;strokeColor=none;fillColor=none;align=center;verticalAlign=middle;whiteSpace=wrap;rounded=0;fontSize=4;fontFamily=Roboto;" parent="IXgej2Zk1H3CgpmO1hfQ-30" vertex="1">
          <mxGeometry x="15" width="10" height="10" as="geometry" />
        </mxCell>
        <mxCell id="r3LCG5irQomIW10Yj3tH-28" value="3" style="text;html=1;strokeColor=none;fillColor=none;align=center;verticalAlign=middle;whiteSpace=wrap;rounded=0;fontSize=4;fontFamily=Roboto;" parent="IXgej2Zk1H3CgpmO1hfQ-30" vertex="1">
          <mxGeometry x="25" width="10" height="10" as="geometry" />
        </mxCell>
        <mxCell id="r3LCG5irQomIW10Yj3tH-39" value="1" style="text;html=1;strokeColor=none;fillColor=none;align=center;verticalAlign=middle;whiteSpace=wrap;rounded=0;fontSize=4;fontFamily=Roboto;" parent="IXgej2Zk1H3CgpmO1hfQ-30" vertex="1">
          <mxGeometry y="5" width="10" height="10" as="geometry" />
        </mxCell>
        <mxCell id="r3LCG5irQomIW10Yj3tH-41" value="2" style="text;html=1;strokeColor=none;fillColor=none;align=center;verticalAlign=middle;whiteSpace=wrap;rounded=0;fontSize=4;fontFamily=Roboto;" parent="IXgej2Zk1H3CgpmO1hfQ-30" vertex="1">
          <mxGeometry y="15" width="10" height="10" as="geometry" />
        </mxCell>
        <mxCell id="r3LCG5irQomIW10Yj3tH-42" value="3" style="text;html=1;strokeColor=none;fillColor=none;align=center;verticalAlign=middle;whiteSpace=wrap;rounded=0;fontSize=4;fontFamily=Roboto;" parent="IXgej2Zk1H3CgpmO1hfQ-30" vertex="1">
          <mxGeometry y="25" width="10" height="10" as="geometry" />
        </mxCell>
        <mxCell id="r3LCG5irQomIW10Yj3tH-45" value="-3" style="text;html=1;strokeColor=none;fillColor=none;align=center;verticalAlign=middle;whiteSpace=wrap;rounded=0;fontSize=4;fontFamily=Roboto;" parent="IXgej2Zk1H3CgpmO1hfQ-30" vertex="1">
          <mxGeometry x="30" y="5" width="10" height="10" as="geometry" />
        </mxCell>
        <mxCell id="r3LCG5irQomIW10Yj3tH-46" value="-2" style="text;html=1;strokeColor=none;fillColor=none;align=center;verticalAlign=middle;whiteSpace=wrap;rounded=0;fontSize=4;fontFamily=Roboto;" parent="IXgej2Zk1H3CgpmO1hfQ-30" vertex="1">
          <mxGeometry x="30" y="15" width="10" height="10" as="geometry" />
        </mxCell>
        <mxCell id="r3LCG5irQomIW10Yj3tH-47" value="-1" style="text;html=1;strokeColor=none;fillColor=none;align=center;verticalAlign=middle;whiteSpace=wrap;rounded=0;fontSize=4;fontFamily=Roboto;" parent="IXgej2Zk1H3CgpmO1hfQ-30" vertex="1">
          <mxGeometry x="30" y="25" width="10" height="10" as="geometry" />
        </mxCell>
        <mxCell id="r3LCG5irQomIW10Yj3tH-48" value="-3" style="text;html=1;strokeColor=none;fillColor=none;align=center;verticalAlign=middle;whiteSpace=wrap;rounded=0;fontSize=4;fontFamily=Roboto;" parent="IXgej2Zk1H3CgpmO1hfQ-30" vertex="1">
          <mxGeometry x="5" y="30" width="10" height="10" as="geometry" />
        </mxCell>
        <mxCell id="r3LCG5irQomIW10Yj3tH-49" value="-2" style="text;html=1;strokeColor=none;fillColor=none;align=center;verticalAlign=middle;whiteSpace=wrap;rounded=0;fontSize=4;fontFamily=Roboto;" parent="IXgej2Zk1H3CgpmO1hfQ-30" vertex="1">
          <mxGeometry x="15" y="30" width="10" height="10" as="geometry" />
        </mxCell>
        <mxCell id="r3LCG5irQomIW10Yj3tH-50" value="-1" style="text;html=1;strokeColor=none;fillColor=none;align=center;verticalAlign=middle;whiteSpace=wrap;rounded=0;fontSize=4;fontFamily=Roboto;" parent="IXgej2Zk1H3CgpmO1hfQ-30" vertex="1">
          <mxGeometry x="25" y="30" width="10" height="10" as="geometry" />
        </mxCell>
        <mxCell id="r3LCG5irQomIW10Yj3tH-64" value="" style="triangle;whiteSpace=wrap;html=1;rotation=0;fillColor=#000000;strokeColor=none;" parent="IXgej2Zk1H3CgpmO1hfQ-30" vertex="1">
          <mxGeometry x="8" y="29.5" width="1" height="1" as="geometry" />
        </mxCell>
        <mxCell id="r3LCG5irQomIW10Yj3tH-65" value="" style="triangle;whiteSpace=wrap;html=1;rotation=0;fillColor=#000000;strokeColor=none;" parent="IXgej2Zk1H3CgpmO1hfQ-30" vertex="1">
          <mxGeometry x="8" y="19.5" width="1" height="1" as="geometry" />
        </mxCell>
        <mxCell id="r3LCG5irQomIW10Yj3tH-66" value="" style="triangle;whiteSpace=wrap;html=1;rotation=0;fillColor=#000000;strokeColor=none;" parent="IXgej2Zk1H3CgpmO1hfQ-30" vertex="1">
          <mxGeometry x="8" y="9.5" width="1" height="1" as="geometry" />
        </mxCell>
        <mxCell id="r3LCG5irQomIW10Yj3tH-51" value="" style="triangle;whiteSpace=wrap;html=1;rotation=90;fillColor=#000000;strokeColor=none;" parent="IXgej2Zk1H3CgpmO1hfQ-30" vertex="1">
          <mxGeometry x="9.5" y="7.5" width="1" height="1" as="geometry" />
        </mxCell>
        <mxCell id="r3LCG5irQomIW10Yj3tH-52" value="" style="triangle;whiteSpace=wrap;html=1;rotation=90;fillColor=#000000;strokeColor=none;" parent="IXgej2Zk1H3CgpmO1hfQ-30" vertex="1">
          <mxGeometry x="19.5" y="7.5" width="1" height="1" as="geometry" />
        </mxCell>
        <mxCell id="r3LCG5irQomIW10Yj3tH-53" value="" style="triangle;whiteSpace=wrap;html=1;rotation=90;fillColor=#000000;strokeColor=none;" parent="IXgej2Zk1H3CgpmO1hfQ-30" vertex="1">
          <mxGeometry x="29.5" y="7.5" width="1" height="1" as="geometry" />
        </mxCell>
        <mxCell id="r3LCG5irQomIW10Yj3tH-56" value="" style="triangle;whiteSpace=wrap;html=1;rotation=180;fillColor=#000000;strokeColor=none;" parent="IXgej2Zk1H3CgpmO1hfQ-30" vertex="1">
          <mxGeometry x="31" y="9.5" width="1" height="1" as="geometry" />
        </mxCell>
        <mxCell id="r3LCG5irQomIW10Yj3tH-57" value="" style="triangle;whiteSpace=wrap;html=1;rotation=180;fillColor=#000000;strokeColor=none;" parent="IXgej2Zk1H3CgpmO1hfQ-30" vertex="1">
          <mxGeometry x="31" y="19.5" width="1" height="1" as="geometry" />
        </mxCell>
        <mxCell id="r3LCG5irQomIW10Yj3tH-58" value="" style="triangle;whiteSpace=wrap;html=1;rotation=180;fillColor=#000000;strokeColor=none;" parent="IXgej2Zk1H3CgpmO1hfQ-30" vertex="1">
          <mxGeometry x="31" y="29.5" width="1" height="1" as="geometry" />
        </mxCell>
        <mxCell id="r3LCG5irQomIW10Yj3tH-60" value="" style="triangle;whiteSpace=wrap;html=1;rotation=-90;fillColor=#000000;strokeColor=none;" parent="IXgej2Zk1H3CgpmO1hfQ-30" vertex="1">
          <mxGeometry x="29.5" y="31" width="1" height="1" as="geometry" />
        </mxCell>
        <mxCell id="r3LCG5irQomIW10Yj3tH-61" value="" style="triangle;whiteSpace=wrap;html=1;rotation=-90;fillColor=#000000;strokeColor=none;" parent="IXgej2Zk1H3CgpmO1hfQ-30" vertex="1">
          <mxGeometry x="19.5" y="31" width="1" height="1" as="geometry" />
        </mxCell>
        <mxCell id="r3LCG5irQomIW10Yj3tH-62" value="" style="triangle;whiteSpace=wrap;html=1;rotation=-90;fillColor=#000000;strokeColor=none;" parent="IXgej2Zk1H3CgpmO1hfQ-30" vertex="1">
          <mxGeometry x="9.5" y="31" width="1" height="1" as="geometry" />
        </mxCell>
        <mxCell id="r3LCG5irQomIW10Yj3tH-1" value="" style="rounded=0;whiteSpace=wrap;html=1;strokeWidth=0.5;fillColor=#f8cecc;strokeColor=#b85450;" parent="IXgej2Zk1H3CgpmO1hfQ-30" vertex="1">
          <mxGeometry x="10" y="10" width="10" height="10" as="geometry" />
        </mxCell>
        <mxCell id="IXgej2Zk1H3CgpmO1hfQ-31" value="" style="group" vertex="1" connectable="0" parent="1">
          <mxGeometry x="150" y="230" width="40" height="40" as="geometry" />
        </mxCell>
        <mxCell id="IXgej2Zk1H3CgpmO1hfQ-32" value="" style="rounded=0;whiteSpace=wrap;html=1;strokeWidth=0.5;" vertex="1" parent="IXgej2Zk1H3CgpmO1hfQ-31">
          <mxGeometry x="10" y="10" width="10" height="10" as="geometry" />
        </mxCell>
        <mxCell id="IXgej2Zk1H3CgpmO1hfQ-33" value="" style="rounded=0;whiteSpace=wrap;html=1;strokeWidth=0.5;" vertex="1" parent="IXgej2Zk1H3CgpmO1hfQ-31">
          <mxGeometry x="20" y="10" width="10" height="10" as="geometry" />
        </mxCell>
        <mxCell id="IXgej2Zk1H3CgpmO1hfQ-34" value="" style="rounded=0;whiteSpace=wrap;html=1;strokeWidth=0.5;" vertex="1" parent="IXgej2Zk1H3CgpmO1hfQ-31">
          <mxGeometry x="10" y="20" width="10" height="10" as="geometry" />
        </mxCell>
        <mxCell id="IXgej2Zk1H3CgpmO1hfQ-35" value="" style="rounded=0;whiteSpace=wrap;html=1;strokeWidth=0.5;" vertex="1" parent="IXgej2Zk1H3CgpmO1hfQ-31">
          <mxGeometry x="20" y="20" width="10" height="10" as="geometry" />
        </mxCell>
        <mxCell id="IXgej2Zk1H3CgpmO1hfQ-36" value="1" style="text;html=1;strokeColor=none;fillColor=none;align=center;verticalAlign=middle;whiteSpace=wrap;rounded=0;fontSize=4;fontFamily=Roboto;" vertex="1" parent="IXgej2Zk1H3CgpmO1hfQ-31">
          <mxGeometry x="5" width="10" height="10" as="geometry" />
        </mxCell>
        <mxCell id="IXgej2Zk1H3CgpmO1hfQ-37" value="2" style="text;html=1;strokeColor=none;fillColor=none;align=center;verticalAlign=middle;whiteSpace=wrap;rounded=0;fontSize=4;fontFamily=Roboto;" vertex="1" parent="IXgej2Zk1H3CgpmO1hfQ-31">
          <mxGeometry x="15" width="10" height="10" as="geometry" />
        </mxCell>
        <mxCell id="IXgej2Zk1H3CgpmO1hfQ-38" value="3" style="text;html=1;strokeColor=none;fillColor=none;align=center;verticalAlign=middle;whiteSpace=wrap;rounded=0;fontSize=4;fontFamily=Roboto;" vertex="1" parent="IXgej2Zk1H3CgpmO1hfQ-31">
          <mxGeometry x="25" width="10" height="10" as="geometry" />
        </mxCell>
        <mxCell id="IXgej2Zk1H3CgpmO1hfQ-39" value="1" style="text;html=1;strokeColor=none;fillColor=none;align=center;verticalAlign=middle;whiteSpace=wrap;rounded=0;fontSize=4;fontFamily=Roboto;" vertex="1" parent="IXgej2Zk1H3CgpmO1hfQ-31">
          <mxGeometry y="5" width="10" height="10" as="geometry" />
        </mxCell>
        <mxCell id="IXgej2Zk1H3CgpmO1hfQ-40" value="2" style="text;html=1;strokeColor=none;fillColor=none;align=center;verticalAlign=middle;whiteSpace=wrap;rounded=0;fontSize=4;fontFamily=Roboto;" vertex="1" parent="IXgej2Zk1H3CgpmO1hfQ-31">
          <mxGeometry y="15" width="10" height="10" as="geometry" />
        </mxCell>
        <mxCell id="IXgej2Zk1H3CgpmO1hfQ-41" value="3" style="text;html=1;strokeColor=none;fillColor=none;align=center;verticalAlign=middle;whiteSpace=wrap;rounded=0;fontSize=4;fontFamily=Roboto;" vertex="1" parent="IXgej2Zk1H3CgpmO1hfQ-31">
          <mxGeometry y="25" width="10" height="10" as="geometry" />
        </mxCell>
        <mxCell id="IXgej2Zk1H3CgpmO1hfQ-42" value="-3" style="text;html=1;strokeColor=none;fillColor=none;align=center;verticalAlign=middle;whiteSpace=wrap;rounded=0;fontSize=4;fontFamily=Roboto;" vertex="1" parent="IXgej2Zk1H3CgpmO1hfQ-31">
          <mxGeometry x="30" y="5" width="10" height="10" as="geometry" />
        </mxCell>
        <mxCell id="IXgej2Zk1H3CgpmO1hfQ-43" value="-2" style="text;html=1;strokeColor=none;fillColor=none;align=center;verticalAlign=middle;whiteSpace=wrap;rounded=0;fontSize=4;fontFamily=Roboto;" vertex="1" parent="IXgej2Zk1H3CgpmO1hfQ-31">
          <mxGeometry x="30" y="15" width="10" height="10" as="geometry" />
        </mxCell>
        <mxCell id="IXgej2Zk1H3CgpmO1hfQ-44" value="-1" style="text;html=1;strokeColor=none;fillColor=none;align=center;verticalAlign=middle;whiteSpace=wrap;rounded=0;fontSize=4;fontFamily=Roboto;" vertex="1" parent="IXgej2Zk1H3CgpmO1hfQ-31">
          <mxGeometry x="30" y="25" width="10" height="10" as="geometry" />
        </mxCell>
        <mxCell id="IXgej2Zk1H3CgpmO1hfQ-45" value="-3" style="text;html=1;strokeColor=none;fillColor=none;align=center;verticalAlign=middle;whiteSpace=wrap;rounded=0;fontSize=4;fontFamily=Roboto;" vertex="1" parent="IXgej2Zk1H3CgpmO1hfQ-31">
          <mxGeometry x="5" y="30" width="10" height="10" as="geometry" />
        </mxCell>
        <mxCell id="IXgej2Zk1H3CgpmO1hfQ-46" value="-2" style="text;html=1;strokeColor=none;fillColor=none;align=center;verticalAlign=middle;whiteSpace=wrap;rounded=0;fontSize=4;fontFamily=Roboto;" vertex="1" parent="IXgej2Zk1H3CgpmO1hfQ-31">
          <mxGeometry x="15" y="30" width="10" height="10" as="geometry" />
        </mxCell>
        <mxCell id="IXgej2Zk1H3CgpmO1hfQ-47" value="-1" style="text;html=1;strokeColor=none;fillColor=none;align=center;verticalAlign=middle;whiteSpace=wrap;rounded=0;fontSize=4;fontFamily=Roboto;" vertex="1" parent="IXgej2Zk1H3CgpmO1hfQ-31">
          <mxGeometry x="25" y="30" width="10" height="10" as="geometry" />
        </mxCell>
        <mxCell id="IXgej2Zk1H3CgpmO1hfQ-48" value="" style="triangle;whiteSpace=wrap;html=1;rotation=0;fillColor=#000000;strokeColor=none;" vertex="1" parent="IXgej2Zk1H3CgpmO1hfQ-31">
          <mxGeometry x="8" y="29.5" width="1" height="1" as="geometry" />
        </mxCell>
        <mxCell id="IXgej2Zk1H3CgpmO1hfQ-49" value="" style="triangle;whiteSpace=wrap;html=1;rotation=0;fillColor=#000000;strokeColor=none;" vertex="1" parent="IXgej2Zk1H3CgpmO1hfQ-31">
          <mxGeometry x="8" y="19.5" width="1" height="1" as="geometry" />
        </mxCell>
        <mxCell id="IXgej2Zk1H3CgpmO1hfQ-50" value="" style="triangle;whiteSpace=wrap;html=1;rotation=0;fillColor=#000000;strokeColor=none;" vertex="1" parent="IXgej2Zk1H3CgpmO1hfQ-31">
          <mxGeometry x="8" y="9.5" width="1" height="1" as="geometry" />
        </mxCell>
        <mxCell id="IXgej2Zk1H3CgpmO1hfQ-51" value="" style="triangle;whiteSpace=wrap;html=1;rotation=90;fillColor=#000000;strokeColor=none;" vertex="1" parent="IXgej2Zk1H3CgpmO1hfQ-31">
          <mxGeometry x="9.5" y="7.5" width="1" height="1" as="geometry" />
        </mxCell>
        <mxCell id="IXgej2Zk1H3CgpmO1hfQ-52" value="" style="triangle;whiteSpace=wrap;html=1;rotation=90;fillColor=#000000;strokeColor=none;" vertex="1" parent="IXgej2Zk1H3CgpmO1hfQ-31">
          <mxGeometry x="19.5" y="7.5" width="1" height="1" as="geometry" />
        </mxCell>
        <mxCell id="IXgej2Zk1H3CgpmO1hfQ-53" value="" style="triangle;whiteSpace=wrap;html=1;rotation=90;fillColor=#000000;strokeColor=none;" vertex="1" parent="IXgej2Zk1H3CgpmO1hfQ-31">
          <mxGeometry x="29.5" y="7.5" width="1" height="1" as="geometry" />
        </mxCell>
        <mxCell id="IXgej2Zk1H3CgpmO1hfQ-54" value="" style="triangle;whiteSpace=wrap;html=1;rotation=180;fillColor=#000000;strokeColor=none;" vertex="1" parent="IXgej2Zk1H3CgpmO1hfQ-31">
          <mxGeometry x="31" y="9.5" width="1" height="1" as="geometry" />
        </mxCell>
        <mxCell id="IXgej2Zk1H3CgpmO1hfQ-55" value="" style="triangle;whiteSpace=wrap;html=1;rotation=180;fillColor=#000000;strokeColor=none;" vertex="1" parent="IXgej2Zk1H3CgpmO1hfQ-31">
          <mxGeometry x="31" y="19.5" width="1" height="1" as="geometry" />
        </mxCell>
        <mxCell id="IXgej2Zk1H3CgpmO1hfQ-56" value="" style="triangle;whiteSpace=wrap;html=1;rotation=180;fillColor=#000000;strokeColor=none;" vertex="1" parent="IXgej2Zk1H3CgpmO1hfQ-31">
          <mxGeometry x="31" y="29.5" width="1" height="1" as="geometry" />
        </mxCell>
        <mxCell id="IXgej2Zk1H3CgpmO1hfQ-57" value="" style="triangle;whiteSpace=wrap;html=1;rotation=-90;fillColor=#000000;strokeColor=none;" vertex="1" parent="IXgej2Zk1H3CgpmO1hfQ-31">
          <mxGeometry x="29.5" y="31" width="1" height="1" as="geometry" />
        </mxCell>
        <mxCell id="IXgej2Zk1H3CgpmO1hfQ-58" value="" style="triangle;whiteSpace=wrap;html=1;rotation=-90;fillColor=#000000;strokeColor=none;" vertex="1" parent="IXgej2Zk1H3CgpmO1hfQ-31">
          <mxGeometry x="19.5" y="31" width="1" height="1" as="geometry" />
        </mxCell>
        <mxCell id="IXgej2Zk1H3CgpmO1hfQ-59" value="" style="triangle;whiteSpace=wrap;html=1;rotation=-90;fillColor=#000000;strokeColor=none;" vertex="1" parent="IXgej2Zk1H3CgpmO1hfQ-31">
          <mxGeometry x="9.5" y="31" width="1" height="1" as="geometry" />
        </mxCell>
        <mxCell id="IXgej2Zk1H3CgpmO1hfQ-93" value="" style="rounded=0;whiteSpace=wrap;html=1;strokeWidth=0.5;fillColor=#f8cecc;strokeColor=#b85450;" vertex="1" parent="IXgej2Zk1H3CgpmO1hfQ-31">
          <mxGeometry x="10" y="10" width="20" height="10" as="geometry" />
        </mxCell>
        <mxCell id="IXgej2Zk1H3CgpmO1hfQ-61" value="grid-area: 1/1/3/-2" style="text;html=1;strokeColor=none;fillColor=none;align=center;verticalAlign=middle;whiteSpace=wrap;rounded=0;fontSize=4;fontFamily=Roboto;" vertex="1" parent="1">
          <mxGeometry x="190" y="224" width="40" height="6" as="geometry" />
        </mxCell>
        <mxCell id="IXgej2Zk1H3CgpmO1hfQ-62" value="&lt;font face=&quot;Roboto&quot;&gt;grid-column: span 2&lt;/font&gt;" style="text;html=1;strokeColor=none;fillColor=none;align=center;verticalAlign=middle;whiteSpace=wrap;rounded=0;fontSize=4;" vertex="1" parent="1">
          <mxGeometry x="150" y="224" width="40" height="6" as="geometry" />
        </mxCell>
        <mxCell id="IXgej2Zk1H3CgpmO1hfQ-94" value="&lt;font face=&quot;Roboto&quot;&gt;Standard&lt;/font&gt;" style="text;html=1;strokeColor=none;fillColor=none;align=center;verticalAlign=middle;whiteSpace=wrap;rounded=0;fontSize=4;" vertex="1" parent="1">
          <mxGeometry x="110" y="224" width="40" height="6" as="geometry" />
        </mxCell>
      </root>
    </mxGraphModel>
  </diagram>
</mxfile>
